HIERARCHY
ROOT Hips
{
    OFFSET 0.000000 0.000000 0.000000
    CHANNELS 6 Xposition Yposition Zposition Zrotation Xrotation Yrotation
    JOINT Spine
    {
        OFFSET -0.000000 14.517291 0.000000
        CHANNELS 3 Zrotation Xrotation Yrotation
        JOINT Spine1
        {
            OFFSET -0.000000 37.558300 0.000000
            CHANNELS 3 Zrotation Xrotation Yrotation
            JOINT Neck
            {
                OFFSET -0.000000 37.404057 3.400369
                CHANNELS 3 Zrotation Xrotation Yrotation
                JOINT Head
                {
                    OFFSET -0.000000 24.785618 -3.540803
                    CHANNELS 3 Zrotation Xrotation Yrotation
                    End Site
                    {
                        OFFSET -0.000000 35.408028 0.000000
                    }
                }
            }
            JOINT LeftShoulder
            {
                OFFSET 6.992933 33.973492 -0.192664
                CHANNELS 3 Zrotation Xrotation Yrotation
                JOINT LeftArm
                {
                    OFFSET 21.527611 0.000000 0.000000
                    CHANNELS 3 Zrotation Xrotation Yrotation
                    JOINT LeftForeArm
                    {
                        OFFSET 56.353916 0.000000 0.000000
                        CHANNELS 3 Zrotation Xrotation Yrotation
                        JOINT LeftHand
                        {
                            OFFSET 47.774071 0.000000 0.000000
                            CHANNELS 3 Zrotation Xrotation Yrotation
                            End Site
                            {
                                OFFSET 26.556021 0.000000 0.000000
                            }
                        }
                    }
                }
            }
            JOINT RightShoulder
            {
                OFFSET -7.065357 33.973492 -0.192664
                CHANNELS 3 Zrotation Xrotation Yrotation
                JOINT RightArm
                {
                    OFFSET -21.527611 0.000000 0.000000
                    CHANNELS 3 Zrotation Xrotation Yrotation
                    JOINT RightForeArm
                    {
                        OFFSET -56.353916 0.000000 0.000000
                        CHANNELS 3 Zrotation Xrotation Yrotation
                        JOINT RightHand
                        {
                            OFFSET -47.774071 0.000000 0.000000
                            CHANNELS 3 Zrotation Xrotation Yrotation
                            End Site
                            {
                                OFFSET -26.556021 0.000000 0.000000
                            }
                        }
                    }
                }
            }
        }
    }
    JOINT LeftUpLeg
    {
        OFFSET 17.704014 0.000000 0.000000
        CHANNELS 3 Zrotation Xrotation Yrotation
        JOINT LeftLeg
        {
            OFFSET -0.000000 -81.181816 0.000000
            CHANNELS 3 Zrotation Xrotation Yrotation
            JOINT LeftFoot
            {
                OFFSET -0.000000 -62.821102 0.000000
                CHANNELS 3 Zrotation Xrotation Yrotation
                JOINT LeftToeBase
                {
                    OFFSET -0.000000 -11.507608 26.556021
                    CHANNELS 3 Zrotation Xrotation Yrotation
                    End Site
                    {
                        OFFSET -0.000000 0.000000 7.081605
                    }
                }
            }
        }
    }
    JOINT RightUpLeg
    {
        OFFSET -17.704014 0.000000 0.000000
        CHANNELS 3 Zrotation Xrotation Yrotation
        JOINT RightLeg
        {
            OFFSET -0.000000 -81.181816 0.000000
            CHANNELS 3 Zrotation Xrotation Yrotation
            JOINT RightFoot
            {
                OFFSET -0.000000 -62.821102 0.000000
                CHANNELS 3 Zrotation Xrotation Yrotation
                JOINT RightToeBase
                {
                    OFFSET -0.000000 -11.507608 26.556021
                    CHANNELS 3 Zrotation Xrotation Yrotation
                    End Site
                    {
                        OFFSET -0.000000 0.000000 7.081605
                    }
                }
            }
        }
    }
}
MOTION
Frames:    12
Frame Time:    0.008333
12.100410    155.021942    -120.438576    -0.896237    -6.361173    42.611313    0.303854    -3.769928    -0.052467    -3.002942    6.105364    0.131440    -10.488711    3.932016    -24.020636    27.261490    6.136166    -21.619614    10.576872    2.218814    -23.717251    -23.923105    19.362011    -33.922882    -13.568442    -4.527246    -107.219780    -3.566242    -22.230888    -12.276975    -22.780661    -8.766221    -1.889223    32.951595    -21.518806    78.216423    2.733686    -4.216791    22.244030    -4.181282    -5.830503    29.021952    19.691753    -3.311867    0.843732    -14.133854    36.913067    -18.417976    4.399637    -28.262300    43.349052    0.000000    0.000000    0.000000    -16.211111    -16.351694    -13.343209    8.273323    19.758972    -15.803763    4.704044    11.617257    -13.228368    0.000000    0.000000    0.000000    
12.094235    155.022842    -120.409607    -0.917009    -6.362581    42.674580    0.259469    -3.794650    -0.101055    -3.053132    6.157757    0.121359    -10.332126    3.842213    -24.011707    27.227055    6.104454    -21.615011    10.530961    2.402715    -23.902487    -24.267324    19.617771    -35.525162    -12.975475    -5.992634    -106.694733    -3.710342    -22.650433    -12.070953    -22.642075    -8.817090    -1.921608    32.888088    -21.500000    78.217804    2.689730    -4.143875    22.282494    -4.146615    -5.748720    29.219574    19.717358    -3.360248    0.813549    -14.121080    36.942257    -18.438314    4.393203    -28.257805    43.342079    0.000000    0.000000    0.000000    -16.208960    -16.347027    -13.359503    8.293882    19.788208    -15.817700    4.720942    11.573995    -13.264909    0.000000    0.000000    0.000000    
12.093481    155.024750    -120.383858    -0.942412    -6.369174    42.725418    0.233474    -3.820431    -0.147507    -3.101961    6.205512    0.109731    -10.174838    3.743812    -23.994251    27.150730    6.084678    -21.607225    10.471919    2.596882    -24.101002    -24.614136    19.779505    -37.083508    -12.492353    -7.263381    -106.146355    -3.779574    -23.049852    -11.931337    -22.520691    -8.861267    -1.920360    32.867943    -21.523138    78.220772    2.717443    -4.101421    22.308443    -4.106088    -5.703012    29.246944    19.750303    -3.400666    0.780481    -14.120643    36.973713    -18.488140    4.369095    -28.278612    43.368153    0.000000    0.000000    0.000000    -16.200771    -16.346880    -13.378129    8.308560    19.823423    -15.791170    4.722711    11.546258    -13.310116    0.000000    0.000000    0.000000    
12.089456    155.026276    -120.356842    -0.973696    -6.369210    42.778671    0.186653    -3.825998    -0.191191    -3.119750    6.192947    0.096131    -10.020634    3.639373    -23.976788    27.044142    6.106982    -21.611517    10.399983    2.831517    -24.328438    -24.846632    20.152657    -38.678417    -11.808728    -8.868544    -105.614761    -3.804597    -23.542408    -11.621210    -22.387602    -8.879806    -1.924918    32.788239    -21.506855    78.211609    2.739645    -4.164320    22.336075    -4.107479    -5.765259    29.091948    19.781281    -3.452641    0.729225    -14.132476    36.994785    -18.492500    4.395209    -28.267111    43.397812    0.000000    0.000000    0.000000    -16.188158    -16.347095    -13.410823    8.317100    19.834524    -15.801950    4.733948    11.540579    -13.337695    0.000000    0.000000    0.000000    
12.088159    155.028198    -120.329666    -1.001873    -6.376107    42.830288    0.170386    -3.844409    -0.246383    -3.184617    6.237901    0.083087    -9.798051    3.503325    -23.880192    26.872389    6.053814    -21.524387    10.350748    2.977042    -24.547907    -25.148308    20.169823    -40.169750    -11.387219    -9.823357    -104.968056    -3.900159    -23.732759    -11.639748    -22.251354    -8.955410    -1.950031    32.731319    -21.481562    78.232277    2.739527    -4.136014    22.343073    -4.115231    -5.740472    29.125385    19.815220    -3.492874    0.697001    -14.129738    37.017578    -18.504129    4.389525    -28.273777    43.392052    0.000000    0.000000    0.000000    -16.175486    -16.344862    -13.434355    8.329922    19.861317    -15.788031    4.776766    11.507323    -13.398465    0.000000    0.000000    0.000000    
12.082065    155.031281    -120.305763    -1.030147    -6.382051    42.871422    0.146941    -3.846408    -0.303050    -3.235981    6.256828    0.067753    -9.608566    3.312129    -23.851656    26.694359    6.119870    -21.530567    10.339581    3.151051    -24.765774    -25.405106    20.476263    -41.692074    -10.715927    -11.241527    -104.390976    -3.913645    -24.101364    -11.470995    -22.124943    -9.015665    -1.961283    32.667004    -21.455601    78.256531    2.725327    -4.133540    22.358517    -4.150280    -5.744371    29.118059    19.847467    -3.529493    0.689731    -14.113648    37.039867    -18.499435    4.354853    -28.287107    43.346157    0.000000    0.000000    0.000000    -16.159071    -16.345633    -13.434925    8.343350    19.871216    -15.856751    4.767594    11.511086    -13.369341    0.000000    0.000000    0.000000    
12.082293    155.034958    -120.280266    -1.050778    -6.392920    42.912083    0.122957    -3.840887    -0.364076    -3.297043    6.279242    0.051926    -9.380737    3.080692    -23.798576    26.469139    6.206469    -21.521093    10.351604    3.308430    -24.945217    -25.615892    20.808552    -43.266762    -10.040735    -12.644294    -103.738777    -4.016564    -24.455057    -11.257487    -21.981066    -9.064614    -1.978261    32.619911    -21.461571    78.310699    2.746024    -4.114245    22.366867    -4.177186    -5.737712    29.152937    19.876108    -3.553688    0.681260    -14.102639    37.054657    -18.505766    4.351829    -28.278725    43.327415    0.000000    0.000000    0.000000    -16.146254    -16.344250    -13.436680    8.351563    19.903078    -15.895458    4.794803    11.492520    -13.376199    0.000000    0.000000    0.000000    
12.086219    155.037720    -120.257042    -1.065579    -6.398285    42.947170    0.087028    -3.819501    -0.417663    -3.340535    6.275831    0.036884    -9.192850    2.870131    -23.765198    26.292767    6.302965    -21.528254    10.322568    3.452629    -25.195255    -25.848261    21.126949    -44.703274    -9.286584    -13.990850    -103.097427    -3.960101    -24.705446    -11.201018    -21.840664    -9.111912    -2.001921    32.551582    -21.443430    78.361557    2.745659    -4.134226    22.382996    -4.186640    -5.761527    29.181938    19.893497    -3.575371    0.666814    -14.087727    37.071152    -18.509716    4.336690    -28.283087    43.305618    0.000000    0.000000    0.000000    -16.145681    -16.349669    -13.427970    8.370284    19.936432    -15.950630    4.821256    11.490630    -13.376709    0.000000    0.000000    0.000000    
12.093435    155.042618    -120.229385    -1.080603    -6.409253    42.989525    0.051013    -3.803450    -0.485750    -3.368071    6.278221    0.016383    -8.997147    2.664883    -23.714859    26.085621    6.381908    -21.517612    10.305744    3.607399    -25.402670    -26.042284    21.447800    -46.233376    -8.586763    -15.320592    -102.409538    -3.924856    -25.025557    -11.086614    -21.732557    -9.170018    -2.004930    32.512814    -21.428095    78.399223    2.752621    -4.148499    22.411497    -4.146088    -5.766787    29.168030    19.915892    -3.590065    0.644654    -14.080293    37.078316    -18.509077    4.324923    -28.282022    43.290562    0.000000    0.000000    0.000000    -16.144487    -16.340387    -13.430747    8.396859    19.968554    -15.965567    4.842015    11.471259    -13.407078    0.000000    0.000000    0.000000    
12.102468    155.043259    -120.205856    -1.084881    -6.415247    43.018101    0.023805    -3.773493    -0.560501    -3.433200    6.276516    -0.004422    -8.790897    2.449483    -23.667480    25.884996    6.458387    -21.510073    10.305721    3.717601    -25.624172    -26.210356    21.864025    -47.627834    -7.878224    -16.691519    -101.821915    -3.900798    -25.420099    -10.976676    -21.601601    -9.189211    -2.031040    32.489777    -21.423170    78.500587    2.737824    -4.160025    22.441820    -4.161738    -5.780746    29.183836    19.924738    -3.593918    0.624938    -14.071143    37.079456    -18.510784    4.332127    -28.278135    43.275803    0.000000    0.000000    0.000000    -16.150112    -16.344120    -13.424829    8.408052    20.019035    -15.968351    4.885704    11.452410    -13.441808    0.000000    0.000000    0.000000    
12.113232    155.042343    -120.185448    -1.080401    -6.416826    43.044636    -0.014535    -3.737337    -0.637434    -3.489152    6.283534    -0.026323    -8.622298    2.235296    -23.610748    25.739086    6.509833    -21.478140    10.325060    3.832830    -25.825020    -26.409946    22.173151    -49.012840    -7.139936    -17.916763    -101.160545    -3.894542    -25.659513    -10.876072    -21.485512    -9.230593    -2.052778    32.491970    -21.430977    78.586159    2.751509    -4.167588    22.499296    -4.198914    -5.802387    29.192734    19.927633    -3.592733    0.605848    -14.076930    37.077862    -18.504568    4.314433    -28.285360    43.260956    0.000000    0.000000    0.000000    -16.171400    -16.339560    -13.420885    8.439485    20.060305    -15.978233    4.880193    11.424066    -13.453776    0.000000    0.000000    0.000000    
12.124663    155.043259    -120.159149    -1.077901    -6.420794    43.061577    -0.050056    -3.714201    -0.710049    -3.549659    6.303739    -0.046220    -8.479728    2.118217    -23.566154    25.689390    6.481398    -21.437857    10.372072    3.970256    -25.986845    -26.597786    22.396021    -50.424210    -6.560036    -18.963619    -100.493614    -3.928474    -25.925814    -10.826143    -21.359789    -9.276103    -2.082686    32.442822    -21.399309    78.665245    2.710683    -4.216703    22.552628    -4.197936    -5.844977    29.209106    19.935589    -3.580916    0.596003    -14.077221    37.067093    -18.537634    4.316331    -28.279007    43.286995    0.000000    0.000000    0.000000    -16.180397    -16.339207    -13.432031    8.456881    20.100863    -15.991525    4.889458    11.398628    -13.475389    0.000000    0.000000    0.000000    
